<?xml version="1.0" encoding="UTF-8"?><svg id="Layer_2" xmlns="http://www.w3.org/2000/svg" viewBox="0 0 405.98 55.2"><defs><style>.cls-1{fill:#d7529e;}.cls-1,.cls-2{stroke-width:0px;}.cls-2{fill:#d8539e;}</style></defs><g id="Layer_1-2"><path class="cls-2" d="m188.13,31.7c0-7.06,5.48-12.41,12.73-12.41s12.73,5.34,12.73,12.45c0,.6-.05,1.49-.19,2.04h-18.82c.79,3.07,3.21,5.06,6.46,5.06,2.46,0,4.6-1.12,5.62-2.65h6.55c-1.81,4.69-6.5,7.9-12.27,7.9-7.34,0-12.82-5.34-12.82-12.41Zm6.5-2.32h12.45c-.74-2.88-3.16-4.83-6.23-4.83s-5.39,1.9-6.23,4.83Z"/><path class="cls-2" d="m216.33,38.71c1.53-.65,2.97-1.44,4.27-2.42-2.46-3.62-3.86-8.46-3.86-13.89,0-8.27,3.72-12.87,9.29-12.87s8.83,4.18,8.83,11.34c0,5.58-2.09,11.06-5.72,15.33,1.49.98,3.16,1.49,5.02,1.49h1.44v5.85h-1.77c-3.58,0-6.74-1.12-9.34-3.07-1.77,1.25-3.72,2.32-5.85,3.07l-2.32-4.83Zm8.83-7.06c2.23-3.16,3.48-6.88,3.48-10.78,0-3.58-1.02-5.48-2.69-5.48-1.81,0-2.97,2.09-2.97,6.6,0,3.67.79,7.02,2.18,9.66Z"/><path class="cls-2" d="m237.56,31.7c0-7.06,5.48-12.41,12.73-12.41s12.73,5.34,12.73,12.45c0,.6-.05,1.49-.19,2.04h-18.82c.79,3.07,3.21,5.06,6.46,5.06,2.46,0,4.6-1.12,5.62-2.65h6.55c-1.81,4.69-6.5,7.9-12.27,7.9-7.34,0-12.82-5.34-12.82-12.41Zm6.5-2.32h12.45c-.74-2.88-3.16-4.83-6.23-4.83s-5.39,1.9-6.23,4.83Z"/><path class="cls-2" d="m265.81,31.7c0-7.06,5.48-12.41,12.73-12.41,6.32,0,11.24,4.04,12.17,9.66h-6.41c-.79-2.28-3.02-3.81-5.76-3.81-3.72,0-6.5,2.83-6.5,6.55s2.79,6.55,6.5,6.55c2.74,0,4.97-1.53,5.76-3.81h6.41c-.93,5.62-5.85,9.66-12.17,9.66-7.25,0-12.73-5.34-12.73-12.41Z"/><path class="cls-2" d="m296.29,36.06v-10.69h-3.76v-5.53h2.14c1.25,0,1.95-.65,1.95-1.91v-4.41h5.71v6.32h5.48v5.53h-5.48v9.66c0,1.86,1.16,2.97,3.11,2.97h2.37v5.53h-3.25c-5.44,0-8.27-2.6-8.27-7.48Z"/><path class="cls-2" d="m314.27,24.82c-1.25-.84-2.04-2.28-2.04-3.9,0-2.28,1.63-3.86,4-3.86s3.95,1.49,4.13,3.44l15.01,1.77v1.44c-2.6,3.67-4.09,6.97-4.09,9.71s1.44,4.27,3.95,4.27h.98v5.85h-1.53c-6.27,0-9.57-3.53-9.57-9.39,0-2.28.56-4.65,1.77-7.02l-7.06-.93-3.3,17.33h-5.95l3.72-18.72Z"/><path class="cls-2" d="m339.12,12.74c0-2.14,1.67-3.76,3.81-3.76s3.81,1.63,3.81,3.76-1.67,3.76-3.81,3.76-3.81-1.63-3.81-3.76Zm.79,7.11h6.04v23.7h-6.04v-23.7Z"/><path class="cls-2" d="m350.36,31.7c0-7.06,5.48-12.41,12.73-12.41,6.32,0,11.24,4.04,12.17,9.66h-6.41c-.79-2.28-3.02-3.81-5.76-3.81-3.72,0-6.5,2.83-6.5,6.55s2.79,6.55,6.5,6.55c2.74,0,4.97-1.53,5.76-3.81h6.41c-.93,5.62-5.85,9.66-12.17,9.66-7.25,0-12.73-5.34-12.73-12.41Z"/><path class="cls-2" d="m378.19,31.7c0-7.06,4.97-12.41,11.57-12.41,3.16,0,5.81,1.25,7.71,3.35v-2.79h6.04v15.84c0,1.25.7,2,2,2h.46v5.85h-1.72c-3.25,0-5.34-1.16-6.27-3.44-1.9,2.46-4.79,4-8.22,4-6.6,0-11.57-5.34-11.57-12.41Zm19.28,0c0-3.72-2.79-6.55-6.55-6.55s-6.5,2.83-6.5,6.55,2.79,6.55,6.5,6.55,6.55-2.83,6.55-6.55Z"/><path class="cls-1" d="m.06,33.53c.05-4.24.6-8.5.88-9.69,3.32-14.19,15.88-12,27.14-15.62C43.15,3.39,58.84.11,74.72,0c16.92-.12,28.93,5.74,44.43,11.35,6.69,2.42,13.7,3.76,20.69,4.99,6.14,1.08,13.82,1.14,19.39,4.02,7.77,4.02,16.85,17.37,7.7,24.43-2.98,2.3-9.37,1.48-13.4.98-.72-.09-1.41.3-1.71.96-2.24,4.95-7.5,8.45-12.96,8.48-5.86.02-11.52-3.96-13.48-9.48l4.06.93c.03.98-4.84.85-5.82.8-11.45-.62-22.89-1.35-34.36-1.44-.18,0,.05-.03-.58-.03-1.2,0,.4.02-2.57.02-.25,0-.55.17-.69-.05-1.87-2.95-3.74-5.89-5.62-8.85-.75-1.19.2-2.72,1.6-2.56,3.95.46,8.22.89,12.27,1.35,1.65.18,2.53-1.89,1.25-2.95C84.19,24.14,57.3,2.4,57.34,2.44c5.31,5.55,17.02,18.19,22.51,24.13,1.04,1.13.14,2.94-1.38,2.79-5.19-.48-13.21-1.22-13.36-1.23.01.03.03.07.04.1.62.78,1.26,1.56,1.87,2.36,3.13,4.13,6.27,8.27,9.4,12.4.84,1.11.04,2.69-1.35,2.68-1.86-.02-3.73-.02-5.59.04l-.76.02c-5.84.19-16.85-1.36-21.62,2.38-1.55,1.22-2.81,2.77-4.35,4.01-3.49,2.8-8.41,3.72-12.68,2.38-3.95-1.25-7.23-4.4-8.69-8.27-.22-.59-.78-.99-1.41-1.05l-11.74-.99c-1.77-.15-3.59-.31-5.18-1.1C-.54,41.3.01,36.94.06,33.53Z"/></g></svg>