<?xml version="1.0" encoding="UTF-8"?><svg id="Layer_2" xmlns="http://www.w3.org/2000/svg" viewBox="0 0 255.89 34.8"><defs><style>.cls-1{fill:#fff;stroke-width:0px;}</style></defs><g id="Layer_1-2"><path class="cls-1" d="m118.58,19.98c0-4.45,3.46-7.82,8.02-7.82s8.02,3.37,8.02,7.85c0,.38-.03.94-.12,1.29h-11.86c.5,1.93,2.02,3.19,4.07,3.19,1.55,0,2.9-.7,3.54-1.67h4.13c-1.14,2.96-4.1,4.98-7.73,4.98-4.63,0-8.08-3.37-8.08-7.82Zm4.1-1.46h7.85c-.47-1.82-1.99-3.05-3.92-3.05s-3.4,1.2-3.92,3.05Z"/><path class="cls-1" d="m136.36,24.4c.97-.41,1.87-.91,2.69-1.52-1.55-2.28-2.43-5.33-2.43-8.76,0-5.21,2.34-8.11,5.86-8.11s5.56,2.64,5.56,7.15c0,3.51-1.32,6.97-3.6,9.66.94.61,1.99.94,3.16.94h.91v3.69h-1.11c-2.26,0-4.25-.7-5.89-1.93-1.11.79-2.34,1.46-3.69,1.93l-1.46-3.05Zm5.56-4.45c1.41-1.99,2.2-4.33,2.2-6.79,0-2.26-.64-3.46-1.7-3.46-1.14,0-1.87,1.32-1.87,4.16,0,2.31.5,4.42,1.38,6.09Z"/><path class="cls-1" d="m149.74,19.98c0-4.45,3.46-7.82,8.02-7.82s8.02,3.37,8.02,7.85c0,.38-.03.94-.12,1.29h-11.86c.5,1.93,2.02,3.19,4.07,3.19,1.55,0,2.9-.7,3.54-1.67h4.13c-1.14,2.96-4.1,4.98-7.73,4.98-4.63,0-8.08-3.37-8.08-7.82Zm4.1-1.46h7.85c-.47-1.82-1.99-3.05-3.92-3.05s-3.4,1.2-3.92,3.05Z"/><path class="cls-1" d="m167.54,19.98c0-4.45,3.46-7.82,8.02-7.82,3.98,0,7.09,2.55,7.67,6.09h-4.04c-.5-1.43-1.9-2.4-3.63-2.4-2.34,0-4.1,1.79-4.1,4.13s1.76,4.13,4.1,4.13c1.73,0,3.13-.97,3.63-2.4h4.04c-.59,3.54-3.69,6.09-7.67,6.09-4.57,0-8.02-3.37-8.02-7.82Z"/><path class="cls-1" d="m186.75,22.73v-6.74h-2.37v-3.49h1.35c.79,0,1.23-.41,1.23-1.2v-2.78h3.6v3.98h3.46v3.49h-3.46v6.09c0,1.17.73,1.87,1.96,1.87h1.49v3.49h-2.05c-3.43,0-5.21-1.64-5.21-4.72Z"/><path class="cls-1" d="m198.09,15.64c-.79-.53-1.29-1.43-1.29-2.46,0-1.43,1.02-2.43,2.52-2.43s2.49.94,2.61,2.17l9.46,1.11v.91c-1.64,2.31-2.58,4.39-2.58,6.12s.91,2.69,2.49,2.69h.61v3.69h-.97c-3.95,0-6.03-2.23-6.03-5.92,0-1.43.35-2.93,1.11-4.42l-4.45-.59-2.08,10.92h-3.75l2.34-11.8Z"/><path class="cls-1" d="m213.75,8.03c0-1.35,1.05-2.37,2.4-2.37s2.4,1.02,2.4,2.37-1.05,2.37-2.4,2.37-2.4-1.03-2.4-2.37Zm.5,4.48h3.81v14.94h-3.81v-14.94Z"/><path class="cls-1" d="m220.84,19.98c0-4.45,3.46-7.82,8.02-7.82,3.98,0,7.09,2.55,7.67,6.09h-4.04c-.5-1.43-1.9-2.4-3.63-2.4-2.34,0-4.1,1.79-4.1,4.13s1.76,4.13,4.1,4.13c1.73,0,3.13-.97,3.63-2.4h4.04c-.59,3.54-3.69,6.09-7.67,6.09-4.57,0-8.02-3.37-8.02-7.82Z"/><path class="cls-1" d="m238.38,19.98c0-4.45,3.13-7.82,7.29-7.82,1.99,0,3.66.79,4.86,2.11v-1.76h3.81v9.99c0,.79.44,1.26,1.26,1.26h.29v3.69h-1.08c-2.05,0-3.37-.73-3.95-2.17-1.2,1.55-3.02,2.52-5.18,2.52-4.16,0-7.29-3.37-7.29-7.82Zm12.15,0c0-2.34-1.76-4.13-4.13-4.13s-4.1,1.79-4.1,4.13,1.76,4.13,4.1,4.13,4.13-1.79,4.13-4.13Z"/><path class="cls-1" d="m.03,21.14c.03-2.67.38-5.36.55-6.11C2.68,6.08,10.6,7.46,17.7,5.19,27.2,2.13,37.09.07,47.09,0c10.67-.08,18.24,3.62,28,7.15,4.22,1.52,8.64,2.37,13.04,3.14,3.87.68,8.71.72,12.22,2.53,4.9,2.54,10.62,10.95,4.85,15.4-1.88,1.45-5.91.93-8.45.62-.45-.06-.89.19-1.08.6-1.41,3.12-4.73,5.33-8.17,5.34-3.69.02-7.26-2.49-8.5-5.97l2.56.59c.02.62-3.05.53-3.67.5-7.22-.39-14.43-.85-21.66-.91-.11,0,.03-.02-.37-.02-.76,0,.25.01-1.62.01-.16,0-.34.11-.43-.03-1.18-1.86-2.36-3.71-3.54-5.58-.47-.75.13-1.72,1.01-1.61,2.49.29,5.18.56,7.73.85,1.04.12,1.59-1.19.78-1.86C53.07,15.22,36.11,1.51,36.14,1.54c3.35,3.5,10.73,11.46,14.19,15.21.65.71.09,1.85-.87,1.76-3.27-.3-8.33-.77-8.42-.77,0,.02.02.04.03.06.39.49.8.98,1.18,1.49,1.98,2.6,3.95,5.21,5.92,7.82.53.7.02,1.7-.85,1.69-1.18-.01-2.35-.01-3.52.03l-.48.02c-3.68.12-10.62-.86-13.63,1.5-.98.77-1.77,1.75-2.74,2.52-2.2,1.77-5.3,2.35-7.99,1.5-2.49-.79-4.56-2.78-5.48-5.21-.14-.37-.49-.63-.89-.66l-7.4-.62c-1.12-.09-2.26-.2-3.26-.69C-.34,26.03,0,23.28.03,21.14Z"/></g></svg>